<?xml version="1.0" standalone="no"?>
<!DOCTYPE svg PUBLIC "-//W3C//DTD SVG 20010904//EN"
 "http://www.w3.org/TR/2001/REC-SVG-20010904/DTD/svg10.dtd">
<svg version="1.0" xmlns="http://www.w3.org/2000/svg"
 width="300.000000pt" height="330.000000pt" viewBox="150 10 400.000000 500.000000"
 preserveAspectRatio="xMidYMid meet">
<metadata>
Created by potrace 1.10, written by Peter Selinger 2001-2011
</metadata>
<g transform="translate(0.000000,336.000000) scale(0.050000,-0.050000)"
fill="rgb(65, 100, 139)" stroke="blue">
<path d="M1988 6505 c-68 -46 -69 -69 -68 -2909 l1 -2806 -72 0 -72 0 0 -310
0 -310 1372 0 1373 0 0 310 0 310 -71 0 -72 0 -4 2837 c-5 2782 -6 2837 -44
2865 -42 31 -2297 43 -2343 13z m2141 -191 c41 -31 52 -574 12 -623 -13 -16
-13 -31 1 -45 29 -29 27 -581 -2 -616 -15 -18 -15 -30 -1 -39 32 -20 28 -605
-4 -617 -20 -7 -20 -14 0 -35 33 -35 36 -590 3 -610 -15 -10 -15 -20 0 -35 30
-30 30 -607 0 -625 -15 -10 -15 -20 0 -35 30 -30 30 -607 0 -625 -15 -10 -15
-20 0 -35 37 -37 29 -612 -9 -627 -27 -10 -27 -14 2 -35 39 -29 48 -575 10
-621 -29 -35 -1934 -42 -1976 -7 -42 35 -35 613 7 630 30 11 30 13 0 30 -39
22 -49 603 -10 627 15 10 15 20 0 35 -29 29 -30 607 -1 625 14 9 14 21 -2 40
-29 35 -26 586 3 621 13 17 13 29 -1 37 -32 20 -28 576 4 609 20 22 20 29 0
36 -33 12 -36 597 -3 617 15 10 15 20 0 35 -29 29 -30 607 -1 625 14 8 14 20
1 37 -39 47 -31 596 9 625 53 39 1905 39 1958 1z m-1897 -5358 c7 -10 24 -8
39 5 15 12 38 16 51 8 33 -21 838 -22 838 -2 0 10 16 11 35 3 55 -22 145 -27
145 -8 0 23 46 14 64 -12 9 -13 23 -11 38 4 16 16 39 17 72 5 26 -11 44 -11
38 -2 -10 15 60 17 88 3 26 -13 113 -9 134 6 13 10 36 10 50 1 28 -17 243 -14
302 5 35 11 154 -93 154 -135 0 -11 11 -14 25 -7 14 7 8 -1 -14 -19 -42 -34
-2257 -49 -2278 -15 -6 8 14 52 44 98 52 81 144 113 175 62z m668 -276 c13 21
24 22 44 5 18 -15 38 -16 57 -4 36 23 65 24 51 2 -6 -9 3 -16 19 -16 16 0 29
7 29 16 0 10 10 17 21 17 12 0 15 -11 7 -25 -11 -20 -8 -20 13 0 34 32 86 33
67 2 -10 -16 -5 -18 14 -6 37 23 103 33 91 14 -5 -8 18 -16 51 -17 39 -2 50 3
33 14 -20 13 -16 17 14 18 23 0 52 -11 65 -24 13 -13 24 -15 24 -5 0 10 22 19
48 19 27 0 44 -7 39 -15 -5 -8 0 -15 12 -15 11 0 21 7 21 15 0 8 50 16 110 18
78 2 106 -4 96 -20 -8 -13 1 -11 19 4 21 17 50 21 79 11 73 -25 97 -26 84 -5
-8 13 16 15 65 7 42 -8 91 -14 107 -13 60 1 121 -19 111 -36 -6 -10 -1 -21 12
-25 38 -13 30 -197 -9 -226 -19 -13 -29 -28 -25 -33 5 -5 -9 -10 -30 -12 -22
-1 -35 5 -29 14 5 10 -6 14 -25 11 -19 -4 -35 -9 -35 -10 0 -2 -61 -7 -135
-11 -95 -5 -135 0 -135 17 -1 16 -6 15 -18 -3 -12 -19 -21 -21 -31 -5 -7 12
-22 22 -33 22 -11 0 -15 -9 -8 -20 7 -12 -16 -20 -57 -20 -88 0 -136 18 -120
45 8 13 4 15 -10 7 -13 -8 -18 -23 -12 -33 17 -29 -119 -23 -150 6 -21 20 -24
20 -13 0 10 -17 0 -25 -28 -25 -23 0 -37 9 -30 20 7 11 3 20 -9 20 -11 0 -21
-7 -21 -15 0 -9 -151 -16 -335 -16 -184 -1 -303 2 -265 6 194 21 54 35 -321
31 -265 -2 -419 4 -419 17 0 10 -9 14 -20 7 -29 -18 -25 37 5 69 20 21 20 24
0 13 -18 -10 -25 4 -25 48 0 34 8 57 18 51 9 -6 16 4 15 22 -4 48 42 54 442
57 200 2 371 9 378 16 7 8 26 3 42 -10 22 -18 32 -17 45 4z"/>
<path d="M2224 6236 c-33 -33 -33 -439 0 -472 35 -35 1824 -34 1849 1 9 14 13
129 7 255 l-10 230 -911 5 c-692 4 -916 0 -935 -19z m196 -226 c0 -137 -4
-150 -40 -150 -40 0 -64 250 -27 287 47 47 67 7 67 -137z m170 -10 c0 -120 -6
-150 -30 -150 -40 -1 -51 48 -43 192 11 196 73 160 73 -42z m170 10 c0 -137
-4 -150 -40 -150 -40 0 -64 250 -27 287 47 47 67 7 67 -137z m176 12 c7 -152
-2 -182 -50 -169 -31 8 -49 208 -27 303 0 4 17 4 36 0 28 -5 36 -31 41 -134z
m164 -12 c0 -137 -4 -150 -40 -150 -36 0 -40 13 -40 150 0 137 4 150 40 150
36 0 40 -13 40 -150z m822 68 c70 -70 13 -198 -89 -198 -59 0 -113 59 -113
122 0 111 121 157 202 76z m-642 -78 c0 -29 -13 -40 -50 -40 -37 0 -50 11 -50
40 0 29 13 40 50 40 37 0 50 -11 50 -40z m165 28 c22 -21 -8 -68 -44 -68 -45
0 -61 17 -47 52 10 28 69 38 91 16z m175 -28 c0 -29 -13 -40 -50 -40 -37 0
-50 11 -50 40 0 29 13 40 50 40 37 0 50 -11 50 -40z"/>
<path d="M2225 5575 c-28 -34 -32 -405 -5 -455 25 -47 1823 -64 1851 -18 17
28 16 450 -1 478 -20 32 -1819 27 -1845 -5z m195 -225 c0 -137 -4 -150 -40
-150 -36 0 -40 13 -40 150 0 137 4 150 40 150 36 0 40 -13 40 -150z m176 -5
c5 -133 2 -145 -33 -145 -37 0 -76 261 -44 292 43 43 71 -13 77 -147z m164 5
c0 -137 -4 -150 -40 -150 -36 0 -40 13 -40 150 0 137 4 150 40 150 36 0 40
-13 40 -150z m176 -5 c5 -135 3 -145 -35 -145 -38 0 -41 12 -41 151 0 222 67
216 76 -6z m164 5 c0 -137 -4 -150 -40 -150 -36 0 -40 13 -40 150 0 137 4 150
40 150 36 0 40 -13 40 -150z m831 61 c73 -111 -50 -236 -159 -164 -63 41 -74
158 -17 191 64 38 142 25 176 -27z m-655 -68 c6 -35 -3 -43 -45 -43 -48 0 -73
52 -40 85 26 25 79 -1 85 -42z m164 7 c0 -37 -11 -50 -41 -50 -49 0 -75 57
-37 82 49 31 78 19 78 -32z m176 -5 c6 -37 -3 -45 -45 -45 -36 0 -51 11 -51
37 0 77 85 84 96 8z"/>
<path d="M2212 4908 c-7 -17 -12 -115 -12 -218 0 -103 5 -201 12 -218 15 -38
1867 -50 1869 -12 0 11 1 110 1 220 0 110 -1 214 -1 230 -1 47 -1851 45 -1869
-2z m208 -218 c0 -137 -4 -150 -40 -150 -36 0 -40 13 -40 150 0 137 4 150 40
150 36 0 40 -13 40 -150z m180 -1 c0 -143 -2 -151 -42 -145 -39 5 -56 133 -39
286 1 6 19 10 41 10 36 0 40 -13 40 -151z m160 1 c0 -137 -4 -150 -40 -150
-36 0 -40 13 -40 150 0 137 4 150 40 150 36 0 40 -13 40 -150z m180 0 c0 -137
-4 -150 -40 -150 -36 0 -40 13 -40 150 0 137 4 150 40 150 36 0 40 -13 40
-150z m160 0 c0 -137 -4 -150 -40 -150 -36 0 -40 13 -40 150 0 137 4 150 40
150 36 0 40 -13 40 -150z m830 62 c72 -109 -52 -235 -160 -164 -47 31 -60 63
-51 132 11 86 161 109 211 32z m-654 -67 c5 -34 -3 -45 -33 -45 -48 0 -71 30
-55 72 17 45 81 25 88 -27z m164 5 c0 -36 -11 -50 -39 -50 -47 0 -65 26 -49
68 21 54 88 40 88 -18z m176 -5 c6 -37 -3 -45 -45 -45 -41 0 -51 10 -51 51 0
69 87 63 96 -6z"/>
<path d="M2212 4247 c-15 -37 -13 -402 2 -441 11 -29 1865 -40 1867 -11 1 33
2 437 0 460 -2 43 -1853 36 -1869 -8z m208 -217 c0 -137 -4 -150 -40 -150 -36
0 -40 13 -40 150 0 137 4 150 40 150 36 0 40 -13 40 -150z m176 5 c-9 -213
-70 -224 -79 -14 -8 157 -7 159 47 159 34 0 37 -14 32 -145z m164 -5 c0 -137
-4 -150 -40 -150 -36 0 -40 13 -40 150 0 137 4 150 40 150 36 0 40 -13 40
-150z m180 9 c0 -136 -23 -184 -74 -153 -38 23 -5 294 36 294 34 0 38 -15 38
-141z m160 -9 c0 -137 -4 -150 -40 -150 -36 0 -40 13 -40 150 0 137 4 150 40
150 36 0 40 -13 40 -150z m811 81 c83 -83 39 -191 -78 -191 -82 0 -113 31
-113 113 0 117 108 161 191 78z m-631 -82 c0 -69 -87 -63 -96 6 -6 37 3 45 45
45 41 0 51 -10 51 -51z m160 1 c0 -35 -11 -50 -37 -50 -49 0 -61 15 -48 61 15
60 85 50 85 -11z m176 5 c-9 -69 -96 -75 -96 -6 0 41 10 51 51 51 42 0 51 -8
45 -45z"/>
<path d="M2260 3625 c-16 -6 -37 -21 -45 -33 -17 -27 -20 -396 -3 -440 13 -34
1867 -51 1869 -17 6 151 1 470 -9 480 -15 15 -1770 25 -1812 10z m160 -255 c0
-137 -4 -150 -40 -150 -36 0 -40 13 -40 150 0 137 4 150 40 150 36 0 40 -13
40 -150z m180 9 c0 -136 -23 -184 -74 -153 -38 23 -5 294 36 294 34 0 38 -15
38 -141z m160 -9 c0 -137 -4 -150 -40 -150 -36 0 -40 13 -40 150 0 137 4 150
40 150 36 0 40 -13 40 -150z m176 5 c-5 -126 -11 -145 -43 -145 -34 0 -50 137
-34 280 1 6 19 10 42 10 38 0 40 -10 35 -145z m164 -5 c0 -137 -4 -150 -40
-150 -36 0 -40 13 -40 150 0 137 4 150 40 150 36 0 40 -13 40 -150z m814 87
c111 -105 -17 -250 -155 -176 -57 30 -53 147 5 188 60 42 95 39 150 -12z
m-634 -78 c0 -47 -53 -74 -84 -43 -31 31 -4 84 43 84 28 0 41 -13 41 -41z
m160 -9 c0 -61 -70 -71 -85 -11 -13 46 -1 61 48 61 26 0 37 -15 37 -50z m176
5 c-4 -30 -20 -45 -46 -45 -26 0 -42 15 -46 45 -6 37 3 45 46 45 43 0 52 -8
46 -45z"/>
<path d="M2224 2956 c-33 -33 -33 -439 0 -472 33 -33 1827 -35 1847 -2 18 28
18 448 0 476 -20 33 -1814 31 -1847 -2z m196 -246 c0 -137 -4 -150 -40 -150
-36 0 -40 13 -40 150 0 137 4 150 40 150 36 0 40 -13 40 -150z m176 5 c-8
-197 -68 -226 -79 -39 -9 156 -2 184 45 184 36 0 39 -12 34 -145z m164 -5 c0
-137 -4 -150 -40 -150 -36 0 -40 13 -40 150 0 137 4 150 40 150 36 0 40 -13
40 -150z m176 5 c-5 -126 -11 -145 -43 -145 -34 0 -50 137 -34 280 1 6 19 10
42 10 38 0 40 -10 35 -145z m164 -5 c0 -137 -4 -150 -40 -150 -36 0 -40 13
-40 150 0 137 4 150 40 150 36 0 40 -13 40 -150z m816 89 c55 -51 56 -107 4
-159 -77 -77 -200 -38 -200 64 0 123 110 176 196 95z m-636 -78 c0 -47 -26
-65 -68 -49 -54 21 -40 88 18 88 36 0 50 -11 50 -39z m166 -1 c-16 -59 -48
-71 -78 -30 -34 45 -19 70 41 70 38 0 45 -8 37 -40z m174 0 c0 -29 -13 -40
-50 -40 -37 0 -50 11 -50 40 0 29 13 40 50 40 37 0 50 -11 50 -40z"/>
<path d="M2224 2296 c-33 -33 -33 -439 0 -472 33 -33 1827 -35 1847 -2 17 28
16 450 -1 478 -19 31 -1815 27 -1846 -4z m192 -231 c-8 -207 -63 -228 -72 -27
-7 147 2 182 46 182 27 0 31 -25 26 -155z m180 17 c7 -154 -3 -191 -48 -166
-24 13 -32 49 -32 146 0 168 -1 162 39 154 28 -5 36 -31 41 -134z m164 -10 c0
-139 -26 -199 -68 -157 -16 16 -15 275 1 292 47 47 67 7 67 -135z m176 -5 c4
-112 -1 -145 -25 -154 -42 -16 -48 1 -51 148 -4 169 -5 163 35 155 29 -5 36
-32 41 -149z m164 -8 c0 -143 -4 -161 -35 -155 -58 11 -63 316 -6 316 38 0 41
-12 41 -161z m810 94 c82 -61 27 -213 -77 -213 -60 0 -113 59 -113 126 0 98
107 147 190 87z m-634 -90 c6 -35 -3 -43 -45 -43 -48 0 -73 52 -40 85 26 25
79 -1 85 -42z m164 7 c0 -39 -10 -50 -47 -50 -40 0 -46 8 -38 50 6 32 23 50
47 50 27 0 38 -14 38 -50z m176 -7 c6 -35 -3 -43 -45 -43 -48 0 -73 52 -40 85
26 25 79 -1 85 -42z"/>
<path d="M2212 1628 c-23 -60 -13 -439 12 -464 31 -31 1827 -35 1846 -4 10 17
16 258 11 465 -1 51 -1849 55 -1869 3z m208 -218 c0 -137 -4 -150 -40 -150
-36 0 -40 13 -40 150 0 137 4 150 40 150 36 0 40 -13 40 -150z m176 -5 c6
-140 4 -145 -40 -145 -43 0 -57 115 -37 296 1 4 17 4 36 0 29 -5 36 -32 41
-151z m164 5 c0 -137 -4 -150 -40 -150 -36 0 -40 13 -40 150 0 137 4 150 40
150 36 0 40 -13 40 -150z m176 -5 c5 -135 3 -145 -35 -145 -38 0 -41 12 -41
151 0 222 67 216 76 -6z m164 5 c0 -137 -4 -150 -40 -150 -36 0 -40 13 -40
150 0 137 4 150 40 150 36 0 40 -13 40 -150z m820 70 c52 -52 51 -108 -4 -159
-85 -80 -196 -28 -196 91 0 106 121 147 200 68z m-640 -81 c0 -32 -11 -40 -45
-35 -66 9 -72 76 -6 76 38 0 51 -10 51 -41z m166 0 c-14 -51 -92 -46 -102 6
-5 27 7 35 53 35 50 0 58 -6 49 -41z m174 1 c0 -29 -13 -40 -50 -40 -37 0 -50
11 -50 40 0 29 13 40 50 40 37 0 50 -11 50 -40z"/>
</g>
</svg>
